<?xml version="1.0" encoding="utf-8"?>
<!-- Generator: Adobe Illustrator 18.1.1, SVG Export Plug-In . SVG Version: 6.00 Build 0)  -->
<svg version="1.1" id="圖層_1" xmlns="http://www.w3.org/2000/svg" xmlns:xlink="http://www.w3.org/1999/xlink" x="0px" y="0px"
	 viewBox="0 0 46.6 7.6" enable-background="new 0 0 46.6 7.6" xml:space="preserve">
<g>
	<path fill="#FFFFFF" d="M38.3,5.7c-0.1,0-0.2-0.1-0.3-0.2c0.6-0.7,0.9-1.6,0.9-1.6l-0.7-0.3c0,0-0.2,0.5-0.5,1.1
		c0-0.3-0.1-0.6-0.1-0.9c0-0.1,0-0.3,0-0.4L39.1,3L39,2.6l-1.4,0.2c0-1,0-2,0-2l-1-0.1c0,0,0,1.1,0.1,2.1L36.1,3l0.4-0.7L35.9,2
		l-0.2,1l-0.2,0l-0.3-0.9l1.4-0.3l0-0.4l-0.8,0.1l-0.1-1.2l-0.8,0.3l0.4,1l-1,0.1l0.1,0.6l0.3,0L35,3.1l-1,0.1l0-1.9l0.4-0.1
		l0.1-0.6l-3.8,0.2l0.3,0.9l0.4-0.1l0.4,2.9l-1.2,0.5L31.1,6l2.2-1.3l0.1,2.4l0.7,0L34,4l0.5-0.1l0.3,2.7l0.4-0.1l0-0.3L36,5.9L36,6
		l0.4,0l0.1-2.2l-1.3,0.2l0-0.3l1.7-0.3c0,0.4,0.1,0.9,0.1,1.2c0.1,0.3,0.1,0.6,0.2,0.8c0,0,0,0-0.1,0.1c-0.7,0.9-1.6,1.2-1.6,1.2
		L35.7,7c0,0,0.8-0.1,1.9-1.1c0.3,0.3,0.6,0.4,1,0.4c0.5,0,0.7-0.4,0.7-0.4l-0.3-0.4C38.9,5.4,38.6,5.7,38.3,5.7z M32.4,2.8l0.9-0.2
		l0,0.4l-0.9,0.2L32.4,2.8z M33.2,1.4l0,0.5l-0.9,0.2l0-0.6L33.2,1.4z M32.4,4.4l0-0.5l0.9-0.3l0,0.5L32.4,4.4z M35.2,5.6l0-0.3
		L36,5.1l0,0.3L35.2,5.6z M35.9,4.4l0,0.3l-0.7,0.2l0-0.3L35.9,4.4z"/>
	<path fill="#FFFFFF" d="M39.1,2.1l0.1-0.4c0,0-0.3-0.1-0.6-0.3C38.4,1.2,38,0.9,38,0.9l-0.3,0.6c0,0,0.3,0.3,0.6,0.4
		C38.8,2.1,39.1,2.1,39.1,2.1z"/>
	<path fill="#FFFFFF" d="M26.9,2.8l2.5-0.3l0.2-0.8l-2.8,0.1c-0.1-0.7-0.2-1.3-0.2-1.3L26,0.6c0,0,0.1,0.5,0.1,1.2L23,2l0.5,1.2
		l2.7-0.4c0.1,1.1,0.2,2.4,0.1,3C26.2,6.6,25.4,6.5,25,6c-0.2,0.1-0.4,0.3-0.4,0.3s0.4,1.2,1.5,0.9c1.1-0.3,1-1.6,0.9-3.3
		C26.9,3.5,26.9,3.1,26.9,2.8z"/>
	<polygon fill="#FFFFFF" points="26,4 24.5,3.4 24.2,4.1 25.9,4.5 	"/>
	<polygon fill="#FFFFFF" points="25.6,4.7 23.1,5.3 23.5,6.3 25.9,5.1 	"/>
	<polygon fill="#FFFFFF" points="28.9,3.4 28.4,2.8 27.3,3.9 27.6,4.4 	"/>
	<path fill="#FFFFFF" d="M28.9,5.3c-0.8-0.3-1.3-0.7-1.3-0.7L27.3,5c0,0,0.5,0.7,1.4,1.1s1.6,0.4,1.6,0.4l0.2-1
		C30.5,5.6,29.7,5.6,28.9,5.3z"/>
	<path fill="#FFFFFF" d="M28,1.3c0.4,0.2,0.9,0.3,0.9,0.3l0.2-0.7c0,0-0.6-0.1-1-0.2c-0.3-0.1-0.6-0.3-0.6-0.3l-0.3,0.3
		C27.3,0.7,27.6,1.1,28,1.3z"/>
	<path fill="#FFFFFF" d="M20.6,3.3c-0.9-0.2-1.3-0.5-1.5-0.6l1.6-0.3L21,1.7L19.2,2l0-0.3c0.9-0.2,1.3-0.5,1.3-0.5l-0.6-0.7
		c0,0-0.6,0.5-1.4,0.7c-0.7,0.2-1.6,0.2-1.6,0.2l0,0.5c0,0,0.6,0.1,1.5,0l0,0.3l-2.3,0.3L16.5,3L18,2.8c-0.2,0.3-0.7,0.7-1.2,0.9
		c-1,0.5-1.9,0.6-1.9,0.6L15,4.8c0,0,0.9,0,1.9-0.4c0.6-0.2,1.1-0.6,1.5-0.9l0,0.2L18,4.5l-2.2,0.2l0.3,0.7l1.5-0.2l-0.3,0.6
		c0,0,0.4,0.1,0.8,0.3c-0.9,0.6-1.6,0.7-1.6,0.7l0.1,0.3c0,0,1-0.1,2.1-0.6c0,0,0.1,0,0.1-0.1c0.7,0.3,1.5,0.8,1.5,0.8l0.7-0.8
		c0,0-0.8-0.4-1.5-0.7c0,0,0,0,0,0c0.3-0.3,0.5-0.7,0.6-0.9l1.1-0.1l0.1-0.4c0.6,0.1,1,0.1,1,0.1l0.5-1C23,3.5,21.8,3.5,20.6,3.3z
		 M18.8,5.7c-0.3-0.1-0.5-0.1-0.5-0.1l0.3-0.4l0.7-0.1C19.2,5.3,19.1,5.5,18.8,5.7z M19.1,4.4L19.4,4L19,3.8l0-0.6
		c0.3,0.2,0.7,0.6,1.1,0.8c0.2,0.1,0.5,0.2,0.7,0.3L19.1,4.4z"/>
	<polygon fill="#FFFFFF" points="8.7,3.7 13.6,3.1 13.7,2.2 12,2.4 11.7,0.5 10.3,1.2 11.2,2.5 8.4,2.7 	"/>
	<path fill="#FFFFFF" d="M12.4,5.6l1-1.4l-1.3-0.8l-0.7,2.2c-0.2,0-0.4,0-0.7,0c0,0-0.1,0-0.1,0c0-0.2-0.1-0.4-0.2-0.7
		c-0.2-0.7-0.4-1.1-0.4-1.1L9,4.5c0,0,0.3,0.4,0.7,1C9.8,5.6,9.9,5.7,10,5.8C7.8,6,6.7,6,6.7,6l0.6,1c0,0,1.2-0.2,3.9-0.4
		c2.7-0.2,4.4-0.3,4.4-0.3l-0.4-0.9C15.1,5.4,14.1,5.5,12.4,5.6z"/>
	<path fill="#FFFFFF" d="M45.1,1.9l0,0.3c-0.3,0-0.9,0-1.5,0.1l0.1-1.7l-1.2-0.1l0.1,1.8c-0.7,0-1.2,0.1-1.6,0.1l0-0.3l-1.1,0.1
		l0.5,3l0.7,0l0-0.3c0.3,0,0.9,0,1.6,0l0.1,2.7h0.8l0.1-2.8c0.5-0.1,1.1-0.2,1.4-0.2l0,0.3l0.7,0.1l0.6-2.8L45.1,1.9z M41,4l0-0.8
		l1.6-0.1l0,0.8L41,4z M43.5,3.8l0-0.8L45,2.9l0,0.8L43.5,3.8z"/>
	<path fill="#FFFFFF" d="M3.7,0.9C2.2,0.9,1,2.1,1,3.6c0,0.6,0.2,1.1,0.5,1.6l-1,1c-0.2,0.2-0.2,0.5,0,0.6c0.2,0.2,0.5,0.2,0.6,0
		l1-1c0.4,0.3,1,0.5,1.6,0.5c1.5,0,2.7-1.2,2.7-2.7S5.2,0.9,3.7,0.9z M2.9,2l0.6,1.5L2.3,4.7C2.3,4.6,2.2,4.6,2.2,4.5
		C2,4.2,2,3.9,2,3.6C2,2.9,2.4,2.3,2.9,2z M2.8,5.1C2.8,5.1,2.7,5.1,2.6,5L3.7,4l0.5,1.3C4.1,5.3,3.9,5.4,3.7,5.4
		C3.4,5.4,3.1,5.3,2.8,5.1z M4.7,5.1L3.3,1.9c0.1,0,0.2,0,0.4,0c1,0,1.8,0.8,1.8,1.8C5.5,4.2,5.2,4.8,4.7,5.1z"/>
</g>
</svg>
